<svg xmlns="http://www.w3.org/2000/svg" viewBox="0 0 232 64"><defs><style>.cls-1,.cls-2{fill:#fff;}.cls-2,.cls-3{stroke:#fff;stroke-miterlimit:10;}.cls-3{fill:none;stroke-width:3px;}</style></defs><title>sfrpgtoolslogo</title><g id="Layer_1" data-name="Layer 1"><path class="cls-1" d="M65.41,40.15A9.27,9.27,0,0,1,62.63,39L64,36.29a8.85,8.85,0,0,0,2.42,1.08,10.06,10.06,0,0,0,2.79.4c2.09,0,3.13-.55,3.13-1.65a1.09,1.09,0,0,0-.8-1.09A13.49,13.49,0,0,0,69,34.44a20.38,20.38,0,0,1-3-.65,4.57,4.57,0,0,1-2-1.27A3.56,3.56,0,0,1,63.08,30a4,4,0,0,1,1.78-3.41,8.18,8.18,0,0,1,4.8-1.27,14,14,0,0,1,3.08.35,8.52,8.52,0,0,1,2.52.94l-1.34,2.66a8.27,8.27,0,0,0-4.29-1.12,4.71,4.71,0,0,0-2.33.46,1.36,1.36,0,0,0-.8,1.22A1.21,1.21,0,0,0,67.35,31a14.11,14.11,0,0,0,2.65.66,20.22,20.22,0,0,1,2.94.64,4.57,4.57,0,0,1,2,1.23A3.45,3.45,0,0,1,75.74,36a3.91,3.91,0,0,1-1.82,3.36,8.59,8.59,0,0,1-5,1.26A13.22,13.22,0,0,1,65.41,40.15Z"/><path class="cls-1" d="M82.29,24.69v.9h4.12v2.8h-4v12H78.9v-12H76.44v-2.8H78.9v-.95a5.13,5.13,0,0,1,1.4-3.8,6.46,6.46,0,0,1,7.12-.57l-1,2.63a3.32,3.32,0,0,0-1.93-.61C83,22.29,82.29,23.09,82.29,24.69Z"/><path class="cls-1" d="M99.31,25.31v3.33a4.92,4.92,0,0,0-.81-.08,4.25,4.25,0,0,0-3.19,1.19,4.73,4.73,0,0,0-1.15,3.43v7.25h-3.5V25.48H94v2.18C95,26.09,96.78,25.31,99.31,25.31Z"/><path class="cls-1" d="M114.14,26.26a6.85,6.85,0,0,1,2.7,2.69,7.93,7.93,0,0,1,1,4,8,8,0,0,1-1,4,6.75,6.75,0,0,1-2.7,2.7,7.89,7.89,0,0,1-3.91,1,6,6,0,0,1-4.78-2v7.25H102V25.48h3.33v2a5.47,5.47,0,0,1,2.14-1.6,7.33,7.33,0,0,1,2.81-.53A8,8,0,0,1,114.14,26.26ZM113,36.34A4.68,4.68,0,0,0,114.27,33,4.65,4.65,0,0,0,113,29.57a4.23,4.23,0,0,0-3.18-1.29,4.56,4.56,0,0,0-2.27.57A4.18,4.18,0,0,0,106,30.49a5.44,5.44,0,0,0,0,4.93,4.18,4.18,0,0,0,1.59,1.64,4.56,4.56,0,0,0,2.27.57A4.23,4.23,0,0,0,113,36.34Z"/><path class="cls-1" d="M135.66,25.48V38.16q0,7.91-8.07,7.9a14.68,14.68,0,0,1-4.08-.55,8.64,8.64,0,0,1-3.2-1.58l1.57-2.63a7.64,7.64,0,0,0,2.48,1.3,9.62,9.62,0,0,0,3,.49A5,5,0,0,0,131,42a4.56,4.56,0,0,0,1.15-3.42v-.78A5.75,5.75,0,0,1,130,39.25a7.57,7.57,0,0,1-2.82.51,8,8,0,0,1-3.85-.91,6.84,6.84,0,0,1-2.72-2.56,7.69,7.69,0,0,1,0-7.55,6.7,6.7,0,0,1,2.72-2.53,8.16,8.16,0,0,1,3.85-.9,8,8,0,0,1,2.95.53,5.5,5.5,0,0,1,2.23,1.63v-2ZM130.94,35.6a4.36,4.36,0,0,0,0-6.15,5.17,5.17,0,0,0-6.55,0,4.33,4.33,0,0,0,0,6.15,5.1,5.1,0,0,0,6.55,0Z"/><path class="cls-1" d="M148.9,39.62a4.08,4.08,0,0,1-1.5.76,7,7,0,0,1-1.86.25,5.29,5.29,0,0,1-3.81-1.29,5,5,0,0,1-1.34-3.75v-7.2h-2.47v-2.8h2.47V22.17h3.5v3.42h4v2.8h-4V35.5a2.39,2.39,0,0,0,.53,1.67,2,2,0,0,0,1.54.57,3.06,3.06,0,0,0,2-.61Z"/><path class="cls-1" d="M153.58,39.65a7.18,7.18,0,0,1-2.84-2.73,7.66,7.66,0,0,1-1-4,7.52,7.52,0,0,1,1-3.94,7.09,7.09,0,0,1,2.84-2.72,9.07,9.07,0,0,1,8.2,0A7.15,7.15,0,0,1,164.62,29a7.62,7.62,0,0,1,1,3.94,7.75,7.75,0,0,1-1,4,7.24,7.24,0,0,1-2.84,2.73,9.07,9.07,0,0,1-8.2,0Zm7.28-3.31A4.64,4.64,0,0,0,162.12,33a4.62,4.62,0,0,0-1.26-3.38,4.28,4.28,0,0,0-3.19-1.29,4.23,4.23,0,0,0-3.18,1.29A4.65,4.65,0,0,0,153.24,33a4.68,4.68,0,0,0,1.25,3.39,4.23,4.23,0,0,0,3.18,1.29A4.28,4.28,0,0,0,160.86,36.34Z"/><path class="cls-1" d="M171.3,39.65a7.24,7.24,0,0,1-2.84-2.73,7.75,7.75,0,0,1-1-4,7.61,7.61,0,0,1,1-3.94,7.15,7.15,0,0,1,2.84-2.72,9.07,9.07,0,0,1,8.2,0A7.11,7.11,0,0,1,182.35,29a7.61,7.61,0,0,1,1,3.94,7.75,7.75,0,0,1-1,4,7.2,7.2,0,0,1-2.85,2.73,9.07,9.07,0,0,1-8.2,0Zm7.28-3.31A4.64,4.64,0,0,0,179.84,33a4.62,4.62,0,0,0-1.26-3.38,4.58,4.58,0,0,0-6.37,0A4.65,4.65,0,0,0,171,33a4.68,4.68,0,0,0,1.25,3.39,4.58,4.58,0,0,0,6.37,0Z"/><path class="cls-1" d="M186.39,19.65h3.5V40.43h-3.5Z"/><path class="cls-1" d="M195.21,40.15a9.09,9.09,0,0,1-2.77-1.2l1.34-2.66a8.92,8.92,0,0,0,2.43,1.08,10,10,0,0,0,2.78.4c2.09,0,3.14-.55,3.14-1.65a1.1,1.1,0,0,0-.8-1.09,13.69,13.69,0,0,0-2.56-.59,20.1,20.1,0,0,1-3-.65,4.54,4.54,0,0,1-2-1.27,3.55,3.55,0,0,1-.85-2.53,4,4,0,0,1,1.78-3.41,8.13,8.13,0,0,1,4.8-1.27,14.06,14.06,0,0,1,3.08.35,8.52,8.52,0,0,1,2.52.94l-1.35,2.66a8.21,8.21,0,0,0-4.28-1.12,4.72,4.72,0,0,0-2.34.46,1.38,1.38,0,0,0-.8,1.22,1.22,1.22,0,0,0,.86,1.19,14.18,14.18,0,0,0,2.64.66,19.64,19.64,0,0,1,2.94.64,4.55,4.55,0,0,1,2,1.23,3.44,3.44,0,0,1,.82,2.47,3.88,3.88,0,0,1-1.82,3.36,8.56,8.56,0,0,1-4.95,1.26A13.29,13.29,0,0,1,195.21,40.15Z"/><path class="cls-2" d="M31.67,40.62c.2.79-1,1.61-.61,2.4a1,1,0,0,0,.4.4c.64.34,1.21-.36,2.18-.26a1.93,1.93,0,0,1,1.25.64,2.18,2.18,0,0,1-.22,2.54,2.55,2.55,0,0,1-.93,1c-1.21.72-2.43-.11-3.94.12a4.79,4.79,0,0,0-3,2,5.28,5.28,0,0,1-.49-2.32,5.64,5.64,0,0,1,.35-1.8,4.23,4.23,0,0,1,1.81-2.51c.18-.1.43-.19.42-.31s-.73-.33-1.22-.34a3.65,3.65,0,0,0-1.59.33,3.45,3.45,0,0,1,2.33-3C29.76,39.17,31.46,39.79,31.67,40.62Z"/><path class="cls-3" d="M48.71,36.26s11.72-8.78,11-20.58a1.26,1.26,0,0,0-1.15-1.16C46.81,13.86,38,25.58,38,25.58c-2.79-.48-3.77.78-3.77.78L30.65,30l3.9,2a10.81,10.81,0,0,0-.89,4l1.74,1.74,1.15,1.15,1.74,1.74a10.81,10.81,0,0,0,4-.89l2,3.9L47.93,40S49.19,39.05,48.71,36.26Z"/><circle class="cls-2" cx="50.64" cy="23.65" r="2.57"/></g></svg>
