<?xml version="1.0" encoding="UTF-8" standalone="no"?><!DOCTYPE svg PUBLIC "-//W3C//DTD SVG 1.1//EN" "http://www.w3.org/Graphics/SVG/1.1/DTD/svg11.dtd"><svg width="100%" height="100%" viewBox="0 0 232 64" version="1.1" xmlns="http://www.w3.org/2000/svg" xmlns:xlink="http://www.w3.org/1999/xlink" xml:space="preserve" xmlns:serif="http://www.serif.com/" style="fill-rule:evenodd;clip-rule:evenodd;stroke-linejoin:round;stroke-miterlimit:1.5;"><g id="Layer2"><g id="Layer-1" serif:id="Layer 1"><g><path d="M76.911,42.268c-1.214,0 -2.399,-0.159 -3.556,-0.476c-1.158,-0.317 -2.082,-0.719 -2.772,-1.204l1.344,-2.66c0.672,0.448 1.479,0.807 2.422,1.078c0.942,0.271 1.871,0.406 2.786,0.406c2.09,0 3.136,-0.551 3.136,-1.652c0,-0.523 -0.266,-0.887 -0.798,-1.092c-0.532,-0.205 -1.386,-0.401 -2.562,-0.588c-1.232,-0.187 -2.236,-0.401 -3.01,-0.644c-0.775,-0.243 -1.447,-0.667 -2.016,-1.274c-0.57,-0.607 -0.854,-1.451 -0.854,-2.534c0,-1.419 0.592,-2.553 1.778,-3.402c1.185,-0.849 2.786,-1.274 4.802,-1.274c1.026,0 2.053,0.117 3.08,0.35c1.026,0.233 1.866,0.546 2.52,0.938l-1.344,2.66c-1.27,-0.747 -2.698,-1.12 -4.284,-1.12c-1.027,0 -1.806,0.154 -2.338,0.462c-0.532,0.308 -0.798,0.714 -0.798,1.218c0,0.56 0.284,0.957 0.854,1.19c0.569,0.233 1.451,0.453 2.646,0.658c1.194,0.187 2.174,0.401 2.94,0.644c0.765,0.243 1.423,0.653 1.974,1.232c0.55,0.579 0.826,1.4 0.826,2.464c0,1.4 -0.607,2.52 -1.82,3.36c-1.214,0.84 -2.866,1.26 -4.956,1.26Z" style="fill:#fff;fill-rule:nonzero;"/><path d="M92.487,23.928c-1.475,0 -2.212,0.803 -2.212,2.408l0,0.896l4.116,0l0,2.8l-4.004,0l0,12.04l-3.5,0l0,-12.04l-2.464,0l0,-2.8l2.464,0l0,-0.952c0,-1.605 0.466,-2.87 1.4,-3.794c0.933,-0.924 2.249,-1.386 3.948,-1.386c1.344,0 2.398,0.271 3.164,0.812l-0.98,2.632c-0.598,-0.411 -1.242,-0.616 -1.932,-0.616Z" style="fill:#fff;fill-rule:nonzero;"/><path d="M102.015,29.304c1.008,-1.568 2.781,-2.352 5.32,-2.352l0,3.332c-0.299,-0.056 -0.57,-0.084 -0.812,-0.084c-1.363,0 -2.427,0.397 -3.192,1.19c-0.766,0.793 -1.148,1.937 -1.148,3.43l0,7.252l-3.5,0l0,-14.952l3.332,0l0,2.184Z" style="fill:#fff;fill-rule:nonzero;"/><path d="M118.191,26.952c1.456,0 2.758,0.317 3.906,0.952c1.148,0.635 2.048,1.531 2.702,2.688c0.653,1.157 0.98,2.492 0.98,4.004c0,1.512 -0.327,2.851 -0.98,4.018c-0.654,1.167 -1.554,2.067 -2.702,2.702c-1.148,0.635 -2.45,0.952 -3.906,0.952c-2.016,0 -3.612,-0.672 -4.788,-2.016l0,7.451l-3.5,0l0,-20.583l3.332,0l0,1.96c0.578,-0.709 1.292,-1.241 2.142,-1.596c0.849,-0.355 1.787,-0.532 2.814,-0.532Zm-0.392,12.32c1.288,0 2.347,-0.429 3.178,-1.288c0.83,-0.859 1.246,-1.988 1.246,-3.388c0,-1.4 -0.416,-2.529 -1.246,-3.388c-0.831,-0.859 -1.89,-1.288 -3.178,-1.288c-0.84,0 -1.596,0.191 -2.268,0.574c-0.672,0.383 -1.204,0.929 -1.596,1.638c-0.392,0.709 -0.588,1.531 -0.588,2.464c0,0.933 0.196,1.755 0.588,2.464c0.392,0.709 0.924,1.255 1.596,1.638c0.672,0.383 1.428,0.574 2.268,0.574Z" style="fill:#fff;fill-rule:nonzero;"/><path d="M143.651,27.12l0,12.684c0,5.264 -2.688,7.896 -8.064,7.896c-1.438,0 -3.054,-0.01 -4.351,0.003l-0.009,-2.98c1.525,0.017 3.114,0.032 4.164,0.009c1.642,-0.035 2.846,-0.373 3.612,-1.12c0.765,-0.747 1.148,-1.885 1.148,-3.416l0,-0.784c-0.598,0.653 -1.326,1.148 -2.184,1.484c-0.859,0.336 -1.802,0.504 -2.828,0.504c-1.419,0 -2.702,-0.303 -3.85,-0.91c-1.148,-0.607 -2.054,-1.461 -2.716,-2.562c-0.663,-1.101 -0.994,-2.361 -0.994,-3.78c0,-1.419 0.331,-2.674 0.994,-3.766c0.662,-1.092 1.568,-1.937 2.716,-2.534c1.148,-0.597 2.431,-0.896 3.85,-0.896c1.082,0 2.067,0.177 2.954,0.532c0.886,0.355 1.628,0.896 2.226,1.624l0,-1.988l3.332,0Zm-7.98,11.312c1.325,0 2.412,-0.397 3.262,-1.19c0.849,-0.793 1.274,-1.825 1.274,-3.094c0,-1.251 -0.425,-2.268 -1.274,-3.052c-0.85,-0.784 -1.937,-1.176 -3.262,-1.176c-1.344,0 -2.441,0.392 -3.29,1.176c-0.85,0.784 -1.274,1.801 -1.274,3.052c0,1.269 0.424,2.301 1.274,3.094c0.849,0.793 1.946,1.19 3.29,1.19Z" style="fill:#fff;fill-rule:nonzero;"/><path d="M156.931,41.26c-0.411,0.336 -0.91,0.588 -1.498,0.756c-0.588,0.168 -1.209,0.252 -1.862,0.252c-1.643,0 -2.912,-0.429 -3.808,-1.288c-0.896,-0.859 -1.344,-2.109 -1.344,-3.752l0,-7.196l-2.464,0l0,-2.8l2.464,0l0,-3.416l3.5,0l0,3.416l4.004,0l0,2.8l-4.004,0l0,7.112c0,0.728 0.177,1.283 0.532,1.666c0.354,0.383 0.868,0.574 1.54,0.574c0.784,0 1.437,-0.205 1.96,-0.616l0.98,2.492Z" style="fill:#fff;fill-rule:nonzero;"/><path d="M165.631,42.268c-1.512,0 -2.875,-0.327 -4.088,-0.98c-1.214,-0.653 -2.161,-1.563 -2.842,-2.73c-0.682,-1.167 -1.022,-2.487 -1.022,-3.962c0,-1.475 0.34,-2.791 1.022,-3.948c0.681,-1.157 1.628,-2.063 2.842,-2.716c1.213,-0.653 2.576,-0.98 4.088,-0.98c1.53,0 2.902,0.327 4.116,0.98c1.213,0.653 2.16,1.559 2.842,2.716c0.681,1.157 1.022,2.473 1.022,3.948c0,1.475 -0.341,2.795 -1.022,3.962c-0.682,1.167 -1.629,2.077 -2.842,2.73c-1.214,0.653 -2.586,0.98 -4.116,0.98Zm0,-2.996c1.288,0 2.352,-0.429 3.192,-1.288c0.84,-0.859 1.26,-1.988 1.26,-3.388c0,-1.4 -0.42,-2.529 -1.26,-3.388c-0.84,-0.859 -1.904,-1.288 -3.192,-1.288c-1.288,0 -2.348,0.429 -3.178,1.288c-0.831,0.859 -1.246,1.988 -1.246,3.388c0,1.4 0.415,2.529 1.246,3.388c0.83,0.859 1.89,1.288 3.178,1.288Z" style="fill:#fff;fill-rule:nonzero;"/><path d="M183.391,42.268c-1.512,0 -2.875,-0.327 -4.088,-0.98c-1.214,-0.653 -2.161,-1.563 -2.842,-2.73c-0.682,-1.167 -1.022,-2.487 -1.022,-3.962c0,-1.475 0.34,-2.791 1.022,-3.948c0.681,-1.157 1.628,-2.063 2.842,-2.716c1.213,-0.653 2.576,-0.98 4.088,-0.98c1.53,0 2.902,0.327 4.116,0.98c1.213,0.653 2.16,1.559 2.842,2.716c0.681,1.157 1.022,2.473 1.022,3.948c0,1.475 -0.341,2.795 -1.022,3.962c-0.682,1.167 -1.629,2.077 -2.842,2.73c-1.214,0.653 -2.586,0.98 -4.116,0.98Zm0,-2.996c1.288,0 2.352,-0.429 3.192,-1.288c0.84,-0.859 1.26,-1.988 1.26,-3.388c0,-1.4 -0.42,-2.529 -1.26,-3.388c-0.84,-0.859 -1.904,-1.288 -3.192,-1.288c-1.288,0 -2.348,0.429 -3.178,1.288c-0.831,0.859 -1.246,1.988 -1.246,3.388c0,1.4 0.415,2.529 1.246,3.388c0.83,0.859 1.89,1.288 3.178,1.288Z" style="fill:#fff;fill-rule:nonzero;"/><rect x="194.431" y="21.296" width="3.5" height="20.776" style="fill:#fff;fill-rule:nonzero;"/><path d="M206.743,42.268c-1.214,0 -2.399,-0.159 -3.556,-0.476c-1.158,-0.317 -2.082,-0.719 -2.772,-1.204l1.344,-2.66c0.672,0.448 1.479,0.807 2.422,1.078c0.942,0.271 1.871,0.406 2.786,0.406c2.09,0 3.136,-0.551 3.136,-1.652c0,-0.523 -0.266,-0.887 -0.798,-1.092c-0.532,-0.205 -1.386,-0.401 -2.562,-0.588c-1.232,-0.187 -2.236,-0.401 -3.01,-0.644c-0.775,-0.243 -1.447,-0.667 -2.016,-1.274c-0.57,-0.607 -0.854,-1.451 -0.854,-2.534c0,-1.419 0.592,-2.553 1.778,-3.402c1.185,-0.849 2.786,-1.274 4.802,-1.274c1.026,0 2.053,0.117 3.08,0.35c1.026,0.233 1.866,0.546 2.52,0.938l-1.344,2.66c-1.27,-0.747 -2.698,-1.12 -4.284,-1.12c-1.027,0 -1.806,0.154 -2.338,0.462c-0.532,0.308 -0.798,0.714 -0.798,1.218c0,0.56 0.284,0.957 0.854,1.19c0.569,0.233 1.451,0.453 2.646,0.658c1.194,0.187 2.174,0.401 2.94,0.644c0.765,0.243 1.423,0.653 1.974,1.232c0.55,0.579 0.826,1.4 0.826,2.464c0,1.4 -0.607,2.52 -1.82,3.36c-1.214,0.84 -2.866,1.26 -4.956,1.26Z" style="fill:#fff;fill-rule:nonzero;"/></g><path d="M54.302,15.628l-11.459,-6.616l-19.908,11.494l0,22.988l19.908,11.494l19.908,-11.494l0,-13.47" style="fill:none;stroke:#fff;stroke-width:2px;"/><path d="M53.877,16.384c0.845,-0.272 1.745,-0.537 2.783,-0.59l-1.918,-0.935l-0.951,1.501" style="fill:#fff;"/><path d="M61.859,30.04c0.679,-0.572 1.221,-0.997 1.816,-1.849l-0.039,1.892l-1.777,-0.043Z" style="fill:#fff;"/><path d="M36.495,24.022l-6.391,0l2.981,4.929" style="fill:none;stroke:#fff;stroke-width:2px;stroke-linejoin:miter;"/><path d="M39.51,39.576l3.333,5.51l3.631,-6.004" style="fill:none;stroke:#fff;stroke-width:2px;stroke-linejoin:miter;"/><path d="M42.843,9.012l6.909,8.141" style="fill:none;stroke:#fff;stroke-width:2px;stroke-linejoin:miter;"/><path d="M36.281,23.138l0.455,-0.009c-0.321,0.546 -0.052,1.276 0.561,1.76l-1.015,0.017l-0.001,-1.768Z" style="fill:#fff;"/><path d="M45.707,38.635l0.461,-0.753c0.224,0.566 0.576,1.195 1.306,1.236l-0.264,0.448l-1.503,-0.931Z" style="fill:#fff;"/><path d="M59.352,31.73l0.324,0.765l-1.659,0.61l-0.241,-0.508c0.006,-0.004 0.013,-0.007 0.02,-0.01c0.561,-0.272 1.076,-0.539 1.556,-0.857Z" style="fill:#fff;"/><path d="M22.935,20.267l7.169,3.755" style="fill:none;stroke:#fff;stroke-width:2px;stroke-linejoin:miter;"/><path d="M42.843,9.012l-12.739,15.01" style="fill:none;stroke:#fff;stroke-width:2px;stroke-linecap:round;stroke-linejoin:miter;"/><path d="M58.837,32.784l3.914,10.536" style="fill:none;stroke:#fff;stroke-width:2px;stroke-linejoin:miter;"/><path d="M51.055,17.303l-0.648,-0.735l-1.332,1.144l0.303,0.369c0.422,-0.249 1.271,-0.623 1.677,-0.778Z" style="fill:#fff;"/><path d="M30.104,24.022l-7.169,19.298" style="fill:none;stroke:#fff;stroke-width:2px;stroke-linecap:round;stroke-linejoin:miter;"/><path d="M42.843,54.988l0,-10.028" style="fill:none;stroke:#fff;stroke-width:2px;stroke-linecap:round;stroke-linejoin:miter;"/><path d="M62.751,43.32l-19.908,1.64" style="fill:none;stroke:#fff;stroke-width:2px;stroke-linecap:round;stroke-linejoin:miter;"/><path d="M22.935,43.32l19.908,1.64" style="fill:none;stroke:#fff;stroke-width:2px;stroke-linecap:round;stroke-linejoin:miter;"/><path d="M38.791,40.096l-0.493,-0.743c0.633,-0.021 1.307,-0.172 1.689,-0.654l0.296,0.449l-1.492,0.948Z" style="fill:#fff;"/><path d="M33.736,28.313l0.38,0.621c-0.409,0.02 -1.155,0.399 -1.583,0.804l-0.323,-0.534l1.526,-0.891Z" style="fill:#fff;"/></g></g><g id="Layer3"><path d="M37.996,32.013c0.027,0.65 -1.143,0.999 -0.945,1.689c0.059,0.208 0.214,0.348 0.266,0.391c0.482,0.405 1.098,0.007 1.902,0.306c0.073,0.028 0.697,0.268 0.95,0.77c0.296,0.586 0.046,1.357 -0.643,1.884c-0.185,0.188 -0.505,0.452 -0.979,0.565c-1.158,0.275 -2.042,-0.637 -3.37,-0.81c-0.674,-0.088 -1.669,-0.009 -2.937,0.844c-0.093,-0.387 -0.202,-1.08 0.005,-1.878c0.151,-0.583 0.417,-1.013 0.621,-1.288c0.804,-1.092 1.494,-1.415 1.989,-1.499c0.167,-0.029 0.396,-0.046 0.409,-0.141c0.022,-0.157 -0.562,-0.411 -0.973,-0.531c-0.299,-0.087 -0.784,-0.183 -1.413,-0.109c0.407,-1.054 1.396,-1.737 2.514,-1.734c1.243,0.004 2.576,0.862 2.604,1.541Z" style="fill:#fff;fill-rule:nonzero;stroke:#fff;stroke-width:1px;stroke-linejoin:miter;stroke-miterlimit:10;"/><path d="M53.282,32.59c0,0 11.553,-3.998 13.099,-13.128c0.031,-0.529 -0.228,-0.908 -0.773,-1.139c-9.928,-3.203 -19.502,3.707 -19.502,3.707c-2.288,-1.003 -3.347,-0.27 -3.347,-0.27l-3.716,1.919l2.953,2.426c-1.255,1.623 -1.474,2.853 -1.474,2.853l1.166,1.717l0.774,1.138l1.168,1.718c0,0 1.341,0.422 3.579,0.243l1.021,3.424l3.716,-1.919c0,0 1.246,-0.458 1.336,-2.689Z" style="fill:none;stroke:#fff;stroke-width:2px;stroke-miterlimit:10;"/><path d="M58.406,25.236c-1.032,0.534 -2.416,0.162 -3.089,-0.829c-0.675,-0.991 -0.383,-2.228 0.65,-2.761c1.033,-0.534 2.417,-0.162 3.09,0.829c0.673,0.991 0.382,2.227 -0.651,2.761" style="fill:#fff;fill-rule:nonzero;"/><path d="M58.407,25.236c1.032,-0.533 1.324,-1.77 0.65,-2.761c-0.673,-0.991 -2.058,-1.362 -3.09,-0.829c-1.033,0.533 -1.324,1.77 -0.651,2.761c0.673,0.991 2.058,1.362 3.091,0.829Z" style="fill:none;stroke:#fff;stroke-width:1px;stroke-linejoin:miter;stroke-miterlimit:10;"/></g></svg>