<svg xmlns="http://www.w3.org/2000/svg" viewBox="0 0 232 64"><defs><style>.cls-1{font-size:28px;font-family:Montserrat-SemiBold, Montserrat;font-weight:700;letter-spacing:-0.01em;}.cls-1,.cls-5{fill:#fff;}.cls-2{letter-spacing:0.07em;}.cls-3{letter-spacing:-0.02em;}.cls-4{letter-spacing:-0.03em;}.cls-5,.cls-6{stroke:#fff;stroke-miterlimit:10;}.cls-6{fill:none;stroke-width:3px;}</style></defs><title>Artboard 1</title><g id="Layer_1" data-name="Layer 1"><text class="cls-1" transform="translate(62.05 40.43)">s<tspan class="cls-2" x="14.08" y="0">f</tspan><tspan class="cls-3" x="26.32" y="0">r</tspan><tspan x="37.6" y="0">pg</tspan><tspan class="cls-4" x="75.57" y="0">t</tspan><tspan x="86.6" y="0">ools</tspan></text><path class="cls-5" d="M31.67,40.62c.2.79-1,1.61-.61,2.4a1,1,0,0,0,.4.4c.64.34,1.21-.36,2.18-.26a1.93,1.93,0,0,1,1.25.64,2.18,2.18,0,0,1-.22,2.54,2.55,2.55,0,0,1-.93,1c-1.21.72-2.43-.11-3.94.12a4.79,4.79,0,0,0-3,2,5.28,5.28,0,0,1-.49-2.32,5.64,5.64,0,0,1,.35-1.8,4.23,4.23,0,0,1,1.81-2.51c.18-.1.43-.19.42-.31s-.73-.33-1.22-.34a3.65,3.65,0,0,0-1.59.33,3.45,3.45,0,0,1,2.33-3C29.76,39.17,31.46,39.79,31.67,40.62Z"/><path class="cls-6" d="M48.71,36.26s11.72-8.78,11-20.58a1.26,1.26,0,0,0-1.15-1.16C46.81,13.86,38,25.58,38,25.58c-2.79-.48-3.77.78-3.77.78L30.65,30l3.9,2a10.81,10.81,0,0,0-.89,4l1.74,1.74,1.15,1.15,1.74,1.74a10.81,10.81,0,0,0,4-.89l2,3.9L47.93,40S49.19,39.05,48.71,36.26Z"/><circle class="cls-5" cx="50.64" cy="23.65" r="2.57"/></g></svg>